<?xml version="1.0" encoding="utf-8"?>
<!-- Generator: Adobe Illustrator 15.1.0, SVG Export Plug-In . SVG Version: 6.00 Build 0)  -->
<!DOCTYPE svg PUBLIC "-//W3C//DTD SVG 1.1//EN" "http://www.w3.org/Graphics/SVG/1.1/DTD/svg11.dtd">
<svg version="1.1"
	 inkscape:version="0.48.2 r9819" sodipodi:docname="Orlen.svg" xmlns:dc="http://purl.org/dc/elements/1.1/" xmlns:cc="http://creativecommons.org/ns#" xmlns:rdf="http://www.w3.org/1999/02/22-rdf-syntax-ns#" xmlns:svg="http://www.w3.org/2000/svg" xmlns:sodipodi="http://sodipodi.sourceforge.net/DTD/sodipodi-0.dtd" xmlns:inkscape="http://www.inkscape.org/namespaces/inkscape"
	 xmlns="http://www.w3.org/2000/svg" xmlns:xlink="http://www.w3.org/1999/xlink" x="0px" y="0px" width="310px" height="225px"
	 viewBox="519.824 385.425 310 225" enable-background="new 519.824 385.425 310 225" xml:space="preserve">
<rect x="527.328" y="528.386" fill="#FFFFFF" width="287.25" height="72.721"/>
<path fill="#E10226" d="M718.164,389.332c-14.894,0-27.651,10.952-29.776,25.845h45.724h18.393c5.614,0,11.088,2.27,15.042,6.222
	l21.127,21.127c8.974,8.965,25.521,10.175,36.151-0.461l-36.596-36.631l-2.137-2.273c-8.959-8.814-20.975-13.828-33.742-13.828
	h-18.238H718.164z M683.806,419.432c-14.119,0-25.811,11.697-25.811,25.982c0,5.471,1.668,9.873,4.547,14.58
	c-1.063-7.592,4.873-14.58,12.614-14.58h12.153c4.558,0,8.976,1.818,12.171,5.008l34.63,34.494l24.016,23.998
	c10.032-10.021,10.032-26.581,0-36.613l-24.016-23.998l-15.947-15.966c-8.201-8.212-19.149-12.905-30.699-12.905H683.806z
	 M723.479,419.432c-1.218,1.978-1.812,4.245-1.812,6.376c0,6.988,5.6,12.614,12.443,12.614c6.986,0,12.461-5.626,12.461-12.614
	c0-2.131-0.612-4.398-1.675-6.376h-10.786H723.479z M524.824,525v81.517h293.521V525H524.824z M565.556,537.306
	c15.709,0,28.46,12.752,28.46,28.46c0,15.709-12.751,28.426-28.46,28.426c-15.708,0-28.425-12.717-28.425-28.426
	C537.132,550.058,549.848,537.306,565.556,537.306z M600.957,537.306h23.059h0.444c14.917,0,22.614,7.104,22.614,19.366
	c0,7.819-4.582,13.304-10.94,14.188l14.905,23.332h-22.733l-4.29-8.563l-5.025-10.188v18.751h-18.033V537.306z M657.996,537.306
	h20.238v0.017h0.018v41.229h17.861v15.641v0.017h-38.117v-0.017v-56.869V537.306z M703.053,537.306h39.741v0.017v13.88h-21.862
	v7.094h11.829v13.298h-11.829v6.957h24.238v15.641v0.017H703.07v-0.017h-0.017V537.306L703.053,537.306z M752.11,537.306h17.862
	l0.018,0.017l18.17,28.665v-28.665v-0.017h17.861v0.017v56.869v0.017H788.16v-0.017l-7.06-11.11l-11.11-17.521v28.647h-17.88v-0.017
	v-56.869V537.306L752.11,537.306z M618.99,551.203v0.889v10.939v0.735h3.11c0.743,0,1.328-0.004,1.915-0.153
	c3.406-0.584,5.179-2.798,5.179-6.052c0-3.402-1.772-5.618-5.179-6.222c-0.587,0-1.172-0.137-1.915-0.137H618.99z M565.556,554.656
	c-6.126,0-11.076,4.984-11.076,11.11s4.95,11.094,11.076,11.094c6.127,0,11.111-4.968,11.111-11.094
	S571.683,554.656,565.556,554.656z"/>
</svg>
