<svg version="1.1" id="Layer_1" xmlns="http://www.w3.org/2000/svg" xmlns:xlink="http://www.w3.org/1999/xlink" x="0px" y="0px" viewBox="0 0 453.6 71.1" style="enable-background:new 0 0 453.6 71.1;" xml:space="preserve">
 <style type="text/css">
  .st0{fill:#D91918;}
 </style>
 <g>
  <polygon class="st0" points="115.8,0 115.8,71.1 118.1,71.1 118.2,0 	">
  </polygon>
  <g>
   <path class="st0" d="M86.1,48.7c0,0,12.3,4.7,10.8,22.3h0.2c0.5-1.1,7.7-16.5-3.7-23.6c0,0,4.6-11.3-4-21.8
			C85,20.3,77,15.2,62.3,17.3c0,0-18.2-30.3-46.3-10.4c0,0,2.1,5.7-2.3,11.7l0.1,0.1c4.3-2.5,24.6-21.4,46.7,1.2
			C60.4,19.8,95.3,16.6,86.1,48.7L86.1,48.7z">
   </path>
   <path class="st0" d="M42.1,50.6c0,0,9-10.9,19.1-0.9c0,0,6.9-8.3,17.5-3.5c4.8,2.2,11.9,9.3,4.1,24.3h-0.2c0,0,3.2-12.7-6.1-18.5
			c-3.6-2.4-10.5-2-17.3,5.5c0,0-3.2-6-8.7-4.3c0,0,0.7,8.8-4.8,17.8h-0.2C45.5,71,48.7,57.2,42.1,50.6L42.1,50.6z">
   </path>
   <path class="st0" d="M8.6,53.6c0,0,11.4-9.3,21-5c6.1,2.7,7.7,10.2,6.5,21.9h0.2c0.9-2,12.1-22.9-5-29.2
			c-3.2-1.2-7.8-1.6-15.9,1.4L7.7,20.8c0,0,12-16.3-7.8-20v0.1C1.8,2,13.6,9.5,0.4,18.4L8.6,53.6L8.6,53.6z">
   </path>
  </g>
  <g>
   <path d="M153.3,11.6c3.1,0,5.7,0.3,7.8,0.9c2.2,0.6,4,1.4,5.4,2.5s2.4,2.4,3.1,4c0.7,1.6,1,3.3,1,5.3c0,1.1-0.2,2.2-0.5,3.3
			c-0.3,1.1-0.9,2-1.6,3c-0.7,0.9-1.6,1.7-2.7,2.5c-1.1,0.7-2.4,1.3-3.9,1.8c6.8,1.4,10.2,5,10.2,10.8c0,2-0.4,3.9-1.1,5.6
			c-0.8,1.7-1.9,3.2-3.3,4.4c-1.5,1.2-3.2,2.2-5.4,2.9c-2.1,0.7-4.6,1-7.3,1h-17.6v-48H153.3z M145.2,17.7v15h7.8
			c3.3,0,5.8-0.6,7.4-1.9c1.6-1.3,2.5-3.1,2.5-5.6c0-2.6-0.8-4.5-2.3-5.7s-4-1.8-7.2-1.8H145.2z M154.8,53.3c1.8,0,3.2-0.2,4.4-0.6
			c1.2-0.4,2.2-1,3-1.7s1.3-1.5,1.7-2.5c0.3-1,0.5-2,0.5-3.1c0-2.3-0.8-4-2.3-5.3s-4-1.9-7.3-1.9h-9.6v15.2h9.6V53.3z">
   </path>
   <path d="M175.8,30.3c3.8-3.6,8.4-5.4,13.7-5.4c2,0,3.7,0.3,5.2,0.9s2.8,1.5,3.8,2.7s1.8,2.5,2.4,4.1c0.5,1.6,0.8,3.3,0.8,5.3v21.5
			h-3.2c-0.7,0-1.2-0.1-1.6-0.3c-0.4-0.2-0.7-0.6-0.9-1.3l-0.7-2.8c-0.9,0.8-1.7,1.5-2.6,2.1c-0.8,0.6-1.7,1.1-2.6,1.5
			c-0.9,0.4-1.9,0.7-2.9,0.9s-2.2,0.3-3.4,0.3c-1.4,0-2.7-0.2-3.8-0.6c-1.2-0.4-2.2-0.9-3.1-1.7c-0.9-0.8-1.5-1.7-2-2.8
			s-0.7-2.5-0.7-4c0-1.3,0.3-2.6,1-3.8s1.9-2.4,3.5-3.3c1.6-1,3.7-1.8,6.4-2.4c2.6-0.6,5.9-1,9.7-1.1v-2.3c0-2.4-0.5-4.3-1.6-5.5
			c-1-1.2-2.6-1.8-4.6-1.8c-1.4,0-2.5,0.2-3.5,0.5c-0.9,0.3-1.7,0.7-2.4,1.1c-0.7,0.4-1.3,0.8-1.8,1.1s-1.1,0.5-1.7,0.5
			c-0.5,0-0.9-0.1-1.2-0.4c-0.3-0.3-0.6-0.6-0.8-0.9L175.8,30.3z M194.8,44.6c-2.5,0.1-4.7,0.3-6.5,0.6s-3.2,0.7-4.3,1.2
			s-1.9,1.1-2.3,1.8c-0.5,0.7-0.7,1.4-0.7,2.3c0,0.8,0.1,1.5,0.4,2c0.3,0.6,0.6,1,1.1,1.4s1,0.6,1.6,0.8s1.3,0.2,2,0.2
			c1.9,0,3.5-0.3,4.8-1s2.6-1.7,3.9-3V44.6z">
   </path>
   <path d="M214.4,30c0.7-0.8,1.5-1.4,2.3-2s1.6-1.1,2.5-1.6c0.9-0.4,1.8-0.8,2.8-1s2.1-0.4,3.3-0.4c1.9,0,3.5,0.3,4.9,0.9
			s2.6,1.5,3.6,2.6s1.7,2.5,2.2,4.1s0.7,3.3,0.7,5.2v21.6h-7.1V37.9c0-2.3-0.5-4.1-1.6-5.3c-1.1-1.3-2.7-1.9-4.8-1.9
			c-1.6,0-3.1,0.4-4.4,1.1c-1.4,0.7-2.6,1.7-3.8,3v24.7h-7.1V25.6h4.3c1,0,1.6,0.5,1.9,1.4L214.4,30z">
   </path>
   <path d="M249.9,10.3v28.5h1.5c0.5,0,0.9-0.1,1.2-0.2c0.3-0.1,0.6-0.4,1-0.8l9.5-10.9c0.3-0.4,0.7-0.8,1.1-1
			c0.4-0.2,0.9-0.3,1.5-0.3h6.5l-11.4,12.9c-0.7,0.9-1.4,1.6-2.2,2.1c0.4,0.3,0.8,0.7,1.2,1c0.3,0.4,0.7,0.8,1,1.3L273,59.5h-6.4
			c-0.6,0-1.1-0.1-1.5-0.3c-0.4-0.2-0.8-0.5-1.1-1l-9.8-13.3c-0.3-0.5-0.7-0.8-1-1c-0.3-0.1-0.8-0.2-1.5-0.2h-1.7v15.8h-7.1V10.3
			H249.9z">
   </path>
   <path d="M305.7,11.6c3.1,0,5.8,0.4,8.1,1.1c2.3,0.7,4.2,1.8,5.7,3.1s2.6,2.9,3.3,4.8c0.7,1.9,1.1,3.9,1.1,6.1
			c0,2.3-0.4,4.4-1.2,6.3s-1.9,3.5-3.5,4.9c-1.5,1.4-3.4,2.4-5.7,3.2s-4.9,1.1-7.9,1.1h-7.1v17.3h-7.8V11.6H305.7z M305.7,36
			c1.7,0,3.3-0.2,4.6-0.7c1.3-0.4,2.4-1.1,3.3-1.9c0.9-0.8,1.5-1.8,2-2.9c0.4-1.2,0.7-2.4,0.7-3.9c0-1.4-0.2-2.6-0.6-3.8
			c-0.4-1.1-1.1-2.1-1.9-2.8c-0.9-0.8-2-1.4-3.3-1.8s-2.9-0.6-4.6-0.6h-7.1V36H305.7z">
   </path>
   <path d="M331.2,43.1c0.1,1.9,0.4,3.6,0.9,5s1.2,2.6,2,3.5c0.9,0.9,1.9,1.6,3.1,2.1s2.5,0.7,4,0.7c1.4,0,2.6-0.2,3.6-0.5
			s1.9-0.7,2.7-1.1c0.8-0.4,1.4-0.7,1.9-1.1c0.5-0.3,1-0.5,1.5-0.5c0.6,0,1,0.2,1.3,0.7l2,2.6c-0.8,1-1.8,1.8-2.9,2.5
			c-1.1,0.7-2.2,1.2-3.4,1.7c-1.2,0.4-2.4,0.7-3.7,0.9s-2.5,0.3-3.7,0.3c-2.4,0-4.5-0.4-6.5-1.2s-3.7-1.9-5.2-3.5
			c-1.5-1.5-2.6-3.4-3.5-5.7c-0.8-2.3-1.2-4.9-1.2-7.8c0-2.3,0.4-4.5,1.1-6.6c0.7-2,1.8-3.8,3.2-5.3s3.1-2.7,5.1-3.6
			s4.2-1.3,6.7-1.3c2.1,0,4,0.3,5.8,1s3.3,1.7,4.6,3s2.3,2.9,3,4.8s1.1,4.1,1.1,6.5c0,1.1-0.1,1.9-0.4,2.2c-0.2,0.4-0.7,0.6-1.3,0.6
			L331.2,43.1L331.2,43.1z M348.2,38.7c0-1.2-0.2-2.3-0.5-3.3s-0.8-1.9-1.5-2.7s-1.5-1.4-2.5-1.8s-2.1-0.6-3.4-0.6
			c-2.6,0-4.6,0.7-6.1,2.2c-1.5,1.5-2.4,3.6-2.8,6.3L348.2,38.7L348.2,38.7z">
   </path>
   <path d="M366.2,10.3v28.5h1.5c0.5,0,0.9-0.1,1.2-0.2c0.3-0.1,0.6-0.4,1-0.8l9.5-10.9c0.3-0.4,0.7-0.8,1.1-1
			c0.4-0.2,0.9-0.3,1.5-0.3h6.5L377,38.5c-0.7,0.9-1.4,1.6-2.2,2.1c0.4,0.3,0.8,0.7,1.2,1c0.3,0.4,0.7,0.8,1,1.3l12.2,16.6h-6.4
			c-0.6,0-1.1-0.1-1.5-0.3c-0.4-0.2-0.8-0.5-1.1-1l-9.8-13.3c-0.3-0.5-0.7-0.8-1-1c-0.3-0.1-0.8-0.2-1.5-0.2h-1.8v15.8H359V10.3
			H366.2z">
   </path>
   <path d="M390.5,30.3c3.8-3.6,8.4-5.4,13.7-5.4c2,0,3.7,0.3,5.2,0.9s2.8,1.5,3.8,2.7s1.8,2.5,2.4,4.1c0.5,1.6,0.8,3.3,0.8,5.3v21.5
			h-3.2c-0.7,0-1.2-0.1-1.6-0.3c-0.4-0.2-0.7-0.6-0.9-1.3L410,55c-0.9,0.8-1.7,1.5-2.6,2.1c-0.8,0.6-1.7,1.1-2.6,1.5
			c-0.9,0.4-1.9,0.7-2.9,0.9s-2.2,0.3-3.4,0.3c-1.4,0-2.7-0.2-3.8-0.6c-1.2-0.4-2.2-0.9-3.1-1.7c-0.9-0.8-1.5-1.7-2-2.8
			s-0.7-2.5-0.7-4c0-1.3,0.3-2.6,1-3.8s1.9-2.4,3.5-3.3c1.6-1,3.7-1.8,6.4-2.4c2.6-0.6,5.9-1,9.7-1.1v-2.3c0-2.4-0.5-4.3-1.6-5.5
			c-1-1.2-2.6-1.8-4.6-1.8c-1.4,0-2.5,0.2-3.5,0.5c-0.9,0.3-1.7,0.7-2.4,1.1c-0.7,0.4-1.3,0.8-1.8,1.1s-1.1,0.5-1.7,0.5
			c-0.5,0-0.9-0.1-1.2-0.4c-0.3-0.3-0.6-0.6-0.8-0.9L390.5,30.3z M409.5,44.6c-2.5,0.1-4.7,0.3-6.5,0.6s-3.2,0.7-4.3,1.2
			c-1.1,0.5-1.9,1.1-2.3,1.8c-0.5,0.7-0.7,1.4-0.7,2.3c0,0.8,0.1,1.5,0.4,2c0.3,0.6,0.6,1,1.1,1.4s1,0.6,1.6,0.8
			c0.6,0.2,1.3,0.2,2,0.2c1.9,0,3.5-0.3,4.8-1s2.6-1.7,3.9-3V44.6z">
   </path>
   <path d="M437.2,25c2.5,0,4.8,0.4,6.8,1.2c2,0.8,3.8,2,5.2,3.5c1.4,1.5,2.5,3.3,3.3,5.5s1.2,4.6,1.2,7.2c0,2.7-0.4,5.1-1.2,7.2
			c-0.8,2.2-1.9,4-3.3,5.5c-1.4,1.5-3.2,2.7-5.2,3.5s-4.3,1.2-6.8,1.2s-4.8-0.4-6.8-1.2s-3.8-2-5.2-3.5s-2.5-3.4-3.3-5.5
			s-1.2-4.6-1.2-7.2c0-2.7,0.4-5.1,1.2-7.2c0.8-2.2,1.9-4,3.3-5.5c1.4-1.5,3.2-2.7,5.2-3.5C432.3,25.4,434.5,25,437.2,25z
			 M437.2,54.4c3.1,0,5.3-1,6.8-3.1s2.2-5,2.2-8.8s-0.7-6.8-2.2-8.8c-1.5-2.1-3.8-3.1-6.8-3.1c-3.1,0-5.4,1-6.9,3.1s-2.3,5-2.3,8.8
			s0.8,6.7,2.3,8.8S434,54.4,437.2,54.4z">
   </path>
  </g>
 </g>
</svg>